# xmcd
# 
# Track frame offsets:
#     150
#     14715
#     26512
#     38250
#     54732
#     64177
#     79225
#     103587
#     124362
#     140690
#     159087
#     170612
#     186402
#     197512
#     207342
#     222250
#     238070
#     253997
#     264427
#     277397
#     306110
# 
# Disc length: 4516
# 
# Revision: 2
# Processed by: cddbd v1.5.2PL0 Copyright (c) Steve Scherf et al.
# Submitted via: fre:ac v1.0.31
# 
DISCID=4011a215
DTITLE=Various Artist - Woman In Jazz
DYEAR=2004
DGENRE=Jazz
TTITLE0=Norah Jones - Come Away With Me
TTITLE1=Lisa Ekdahl - It's Oh So Quiet
TTITLE2=Nina Simone - I Put A Spell On You
TTITLE3=Joss Stone - Fell In Love With A Boy
TTITLE4=Bobbie Gentry - Son Of A Preacher Man
TTITLE5=Liza Minnelli - Theme From New York, New York
TTITLE6=Caecilie Norby - Calling You
TTITLE7=Cassandra Wilson - Fragile
TTITLE8=Heren Ann - Not Going Anywhere
TTITLE9=Diana Krall - Frim Fram Sauce
TTITLE10=Erma Franklin - Piece Of My Heart
TTITLE11=Buddy Rich - The Beat Goes On
TTITLE12=Peggy Lee - Strangers In The Night
TTITLE13=Julie London - Mad About The Boy
TTITLE14=Billie Holiday - Georgia On My Mind
TTITLE15=Shirley Bassey - As Time Goes By
TTITLE16=Ella Fitzgerald - Misty Blue
TTITLE17=Dinah Washington - - Call Me Irresponsible
TTITLE18=Sarah Vaughan - 'Round Midnight
TTITLE19=Eliane Elias - Girl From Ipanema
TTITLE20=Data - Data
EXTD=YEAR: 2004
EXTT0=
EXTT1=
EXTT2=
EXTT3=
EXTT4=
EXTT5=
EXTT6=
EXTT7=
EXTT8=
EXTT9=
EXTT10=
EXTT11=
EXTT12=
EXTT13=
EXTT14=
EXTT15=
EXTT16=
EXTT17=
EXTT18=
EXTT19=
EXTT20=
PLAYORDER=
